<?xml version="1.0" encoding="UTF-8"?>
<svg width="400" height="400" viewBox="0 0 400 400" xmlns="http://www.w3.org/2000/svg">
  <rect width="400" height="400" fill="#0f1115"/>
  <g stroke="#2a2f3a" stroke-width="2" fill="none" opacity="0.6">
    <!-- Burger -->
    <g transform="translate(40,40)">
      <rect x="8" y="22" width="64" height="8" rx="4"/>
      <rect x="8" y="36" width="64" height="8" rx="4"/>
      <path d="M8 22c4-10 20-16 40-16s36 6 40 16"/>
      <path d="M8 44c4 10 20 16 40 16s36-6 40-16"/>
    </g>
    <!-- Pizza slice -->
    <g transform="translate(260,60)">
      <path d="M0 0 L60 20 L10 70 Z"/>
      <circle cx="20" cy="25" r="4"/>
      <circle cx="35" cy="30" r="4"/>
      <circle cx="25" cy="45" r="4"/>
    </g>
    <!-- Drink cup -->
    <g transform="translate(70,250)">
      <rect x="12" y="20" width="46" height="50" rx="6"/>
      <path d="M8 20h54"/>
      <path d="M22 20l6-16"/>
      <path d="M28 4h20"/>
    </g>
    <!-- Donut -->
    <g transform="translate(300,260)">
      <circle cx="0" cy="0" r="26"/>
      <circle cx="0" cy="0" r="10"/>
      <path d="M-18 -6c6 4 12 4 18 0"/>
      <path d="M-12 10c8 2 16 2 24 0"/>
    </g>
    <!-- Leaf/Herb -->
    <g transform="translate(180,180)">
      <path d="M0 0 C 10 -20, 30 -20, 40 0 C 30 10, 10 10, 0 0 Z"/>
      <path d="M0 0 C 10 20, 30 20, 40 0"/>
    </g>
    <!-- Repeating faint lines -->
    <g opacity="0.35">
      <path d="M0 100 H400"/>
      <path d="M0 200 H400"/>
      <path d="M0 300 H400"/>
      <path d="M100 0 V400"/>
      <path d="M200 0 V400"/>
      <path d="M300 0 V400"/>
    </g>
  </g>
</svg>
