<?xml version="1.0" encoding="UTF-8"?>
<svg width="400" height="400" viewBox="0 0 400 400" xmlns="http://www.w3.org/2000/svg">
  <rect width="400" height="400" fill="white"/>
  <!-- Tighter-packed, larger food motifs to minimize empty space -->
  <g stroke="#e5e7eb" stroke-width="2" fill="none" opacity="0.85">
    <!-- Burger (larger, nearer edges) -->
    <g transform="translate(20,24) scale(1.2)">
      <rect x="8" y="22" width="90" height="10" rx="5"/>
      <rect x="8" y="38" width="90" height="10" rx="5"/>
      <path d="M8 22c6-12 28-19 53-19s47 7 53 19"/>
      <path d="M8 50c6 12 28 19 53 19s47-7 53-19"/>
    </g>
    <!-- Pizza slice (larger) -->
    <g transform="translate(250,28) scale(1.25)">
      <path d="M0 0 L82 26 L12 95 Z"/>
      <circle cx="26" cy="34" r="5"/>
      <circle cx="48" cy="40" r="5"/>
      <circle cx="32" cy="60" r="5"/>
    </g>
    <!-- Drink cup (larger) -->
    <g transform="translate(30,250) scale(1.25)">
      <rect x="12" y="20" width="64" height="70" rx="8"/>
      <path d="M6 20h80"/>
      <path d="M24 20l8-20"/>
      <path d="M32 0h28"/>
    </g>
    <!-- Donut (larger) -->
    <g transform="translate(322,280) scale(1.25)">
      <circle cx="0" cy="0" r="36"/>
      <circle cx="0" cy="0" r="14"/>
      <path d="M-26 -8c8 6 16 6 24 0"/>
      <path d="M-18 14c12 3 24 3 36 0"/>
    </g>
    <!-- Herb (larger) -->
    <g transform="translate(172,168) scale(1.25)">
      <path d="M0 0 C 16 -28, 48 -28, 64 0 C 48 14, 16 14, 0 0 Z"/>
      <path d="M0 0 C 16 28, 48 28, 64 0"/>
    </g>
    <!-- Minimal guide lines to avoid big empty gaps, closer spacing -->
    <g opacity="0.3">
      <path d="M0 120 H400"/>
      <path d="M0 240 H400"/>
      <path d="M120 0 V400"/>
      <path d="M240 0 V400"/>
    </g>
  </g>
</svg>
