<?xml version="1.0" encoding="UTF-8"?>
<svg width="300" height="300" viewBox="0 0 300 300" xmlns="http://www.w3.org/2000/svg">
  <!-- Dense outline food pattern: minimal whitespace; motifs aligned for seamless repeat -->
  <rect width="300" height="300" fill="white"/>
  <g stroke="#cbd5e1" stroke-width="2" fill="none" opacity="0.95">
    <!-- Grid of motifs (3x3) with small padding to avoid overlap on edges -->
    <!-- Row 1 -->
    <g transform="translate(8,8)">
      <!-- pizza -->
      <g>
        <path d="M0 0 L44 14 L8 52 Z"/>
        <circle cx="16" cy="18" r="3"/>
        <circle cx="28" cy="24" r="3"/>
        <circle cx="20" cy="36" r="3"/>
      </g>
    </g>
    <g transform="translate(104,8) rotate(-8)">
      <!-- burger -->
      <rect x="6" y="16" width="50" height="7" rx="4"/>
      <rect x="6" y="28" width="50" height="7" rx="4"/>
      <path d="M6 16c4-8 18-12 34-12s30 4 34 12"/>
      <path d="M6 35c4 8 18 12 34 12s30-4 34-12"/>
    </g>
    <g transform="translate(204,8) rotate(7)">
      <!-- fries -->
      <path d="M6 12h44l-7 48H13L6 12Z"/>
      <path d="M13 12l5-10M22 12l5-10M31 12l5-10M40 12l5-10"/>
    </g>

    <!-- Row 2 -->
    <g transform="translate(8,104) rotate(6)">
      <!-- drink cup -->
      <rect x="10" y="14" width="40" height="44" rx="6"/>
      <path d="M6 14h48"/>
      <path d="M18 14l6-14"/>
      <path d="M24 0h18"/>
    </g>
    <g transform="translate(104,104) rotate(-5)">
      <!-- donut -->
      <circle cx="0" cy="0" r="24"/>
      <circle cx="0" cy="0" r="9"/>
      <path d="M-16 -5c6 4 12 4 18 0"/>
      <path d="M-12 8c8 2 16 2 24 0"/>
    </g>
    <g transform="translate(204,104) rotate(-10)">
      <!-- hotdog -->
      <ellipse cx="28" cy="14" rx="36" ry="14"/>
      <path d="M2 10c22 14 44 14 66 0"/>
    </g>

    <!-- Row 3 -->
    <g transform="translate(8,204) rotate(-6)">
      <!-- cupcake -->
      <path d="M0 14h56l-7 28H7L0 14Z"/>
      <path d="M6 14c3-10 14-16 23-16s20 6 23 16"/>
    </g>
    <g transform="translate(104,204) rotate(8)">
      <!-- milkshake -->
      <path d="M8 8h42l-6 14H14L8 8Z"/>
      <rect x="14" y="22" width="38" height="40" rx="8"/>
      <path d="M28 8l5-12"/>
    </g>
    <g transform="translate(204,204) rotate(4)">
      <!-- pizza small -->
      <path d="M0 0 L42 14 L8 50 Z"/>
      <circle cx="16" cy="16" r="3"/>
      <circle cx="28" cy="22" r="3"/>
    </g>

    <!-- Tiny fillers to eliminate whitespace -->
    <g opacity="0.7" stroke-width="1.5">
      <circle cx="76" cy="76" r="2.5"/>
      <circle cx="176" cy="76" r="2.5"/>
      <circle cx="276" cy="76" r="2.5"/>
      <circle cx="76" cy="176" r="2.5"/>
      <circle cx="176" cy="176" r="2.5"/>
      <circle cx="276" cy="176" r="2.5"/>
      <circle cx="76" cy="276" r="2.5"/>
      <circle cx="176" cy="276" r="2.5"/>
      <circle cx="276" cy="276" r="2.5"/>
    </g>
  </g>
</svg>
