<?xml version="1.0" encoding="UTF-8"?>
<svg width="400" height="400" viewBox="0 0 400 400" xmlns="http://www.w3.org/2000/svg">
  <rect width="400" height="400" fill="white"/>
  <!-- Mixed-size food icons: some large, some small, slight rotations for variety -->
  <g stroke="#e5e7eb" stroke-width="2" fill="none" opacity="0.85">
    <!-- Large burger -->
    <g transform="translate(18,22) scale(1.35)">
      <rect x="8" y="22" width="90" height="10" rx="5"/>
      <rect x="8" y="38" width="90" height="10" rx="5"/>
      <path d="M8 22c6-12 28-19 53-19s47 7 53 19"/>
      <path d="M8 50c6 12 28 19 53 19s47-7 53-19"/>
    </g>

    <!-- Small pizza slice -->
    <g transform="translate(300,40) scale(0.85) rotate(-8)">
      <path d="M0 0 L60 20 L10 70 Z"/>
      <circle cx="20" cy="25" r="4"/>
      <circle cx="35" cy="30" r="4"/>
      <circle cx="25" cy="45" r="4"/>
    </g>

    <!-- Medium drink cup -->
    <g transform="translate(42,270) scale(1.1) rotate(5)">
      <rect x="12" y="20" width="54" height="60" rx="7"/>
      <path d="M6 20h70"/>
      <path d="M22 20l7-18"/>
      <path d="M30 2h24"/>
    </g>

    <!-- Small donut -->
    <g transform="translate(330,295) scale(0.9)">
      <circle cx="0" cy="0" r="28"/>
      <circle cx="0" cy="0" r="11"/>
      <path d="M-18 -6c6 4 12 4 18 0"/>
      <path d="M-12 10c8 2 16 2 24 0"/>
    </g>

    <!-- Large herb -->
    <g transform="translate(170,165) scale(1.35) rotate(-3)">
      <path d="M0 0 C 16 -28, 48 -28, 64 0 C 48 14, 16 14, 0 0 Z"/>
      <path d="M0 0 C 16 28, 48 28, 64 0"/>
    </g>

    <!-- Tiny garnish elements to reduce empty space -->
    <g opacity="0.35" stroke-width="1.5">
      <g transform="translate(110,320) scale(0.7)">
        <circle cx="0" cy="0" r="6"/>
        <path d="M-6 0h12"/>
      </g>
      <g transform="translate(260,200) scale(0.7) rotate(12)">
        <rect x="-6" y="-4" width="12" height="8" rx="2"/>
      </g>
      <g transform="translate(210,70) scale(0.65) rotate(-15)">
        <path d="M0 -6 L6 6 L-6 6 Z"/>
      </g>
    </g>
  </g>
</svg>
