<?xml version="1.0" encoding="UTF-8"?>
<svg width="300" height="300" viewBox="0 0 300 300" xmlns="http://www.w3.org/2000/svg">
  <!-- Seamless light pattern: no borders/guides, all strokes on integer coords, ample margins from edges -->
  <rect width="300" height="300" fill="white"/>
  <g stroke="#e7eaf0" stroke-width="2" fill="none" opacity="0.9">
    <!-- Burger -->
    <g transform="translate(30,30)">
      <rect x="8" y="22" width="60" height="8" rx="4"/>
      <rect x="8" y="36" width="60" height="8" rx="4"/>
      <path d="M8 22c4-10 20-16 40-16s36 6 40 16"/>
      <path d="M8 44c4 10 20 16 40 16s36-6 40-16"/>
    </g>
    <!-- Pizza slice -->
    <g transform="translate(210,36)">
      <path d="M0 0 L58 20 L10 68 Z"/>
      <circle cx="20" cy="24" r="4"/>
      <circle cx="34" cy="30" r="4"/>
      <circle cx="24" cy="46" r="4"/>
    </g>
    <!-- Drink cup -->
    <g transform="translate(54,204)">
      <rect x="12" y="20" width="46" height="50" rx="6"/>
      <path d="M8 20h54"/>
      <path d="M22 20l6-16"/>
      <path d="M28 4h20"/>
    </g>
    <!-- Donut -->
    <g transform="translate(228,222)">
      <circle cx="0" cy="0" r="26"/>
      <circle cx="0" cy="0" r="10"/>
      <path d="M-18 -6c6 4 12 4 18 0"/>
      <path d="M-12 10c8 2 16 2 24 0"/>
    </g>
    <!-- Herb -->
    <g transform="translate(126,120)">
      <path d="M0 0 C 14 -24, 42 -24, 56 0 C 42 12, 14 12, 0 0 Z"/>
      <path d="M0 0 C 14 24, 42 24, 56 0"/>
    </g>
    <!-- Extra motif to break uniform alignment -->
    <g transform="translate(120,42)">
      <circle cx="0" cy="0" r="8"/>
    </g>
    <g transform="translate(180,264)">
      <rect x="-6" y="-4" width="12" height="8" rx="2"/>
    </g>
  </g>
</svg>
