<?xml version="1.0" encoding="UTF-8"?>
<svg width="400" height="400" viewBox="0 0 400 400" xmlns="http://www.w3.org/2000/svg">
  <rect width="400" height="400" fill="white"/>
  <!-- Equal-size food motifs, staggered layout to avoid straight rows/columns -->
  <g stroke="#e5e7eb" stroke-width="2" fill="none" opacity="0.85">
    <!-- Row A (slightly rotated) -->
    <g transform="translate(20,30) rotate(-4)">
      <!-- burger -->
      <g>
        <rect x="8" y="22" width="70" height="8" rx="4"/>
        <rect x="8" y="36" width="70" height="8" rx="4"/>
        <path d="M8 22c4-10 24-16 47-16s43 6 47 16"/>
        <path d="M8 44c4 10 24 16 47 16s43-6 47-16"/>
      </g>
    </g>

    <!-- Row B (shifted right, opposite rotation) -->
    <g transform="translate(140,110) rotate(3)">
      <!-- pizza slice -->
      <g>
        <path d="M0 0 L60 20 L10 70 Z"/>
        <circle cx="20" cy="25" r="4"/>
        <circle cx="35" cy="30" r="4"/>
        <circle cx="25" cy="45" r="4"/>
      </g>
    </g>

    <!-- Row C (shifted left) -->
    <g transform="translate(40,200) rotate(2)">
      <!-- drink cup -->
      <g>
        <rect x="12" y="20" width="50" height="55" rx="6"/>
        <path d="M6 20h62"/>
        <path d="M22 20l6-16"/>
        <path d="M28 4h22"/>
      </g>
    </g>

    <!-- Row D (shifted right again) -->
    <g transform="translate(260,230) rotate(-5)">
      <!-- donut -->
      <g>
        <circle cx="0" cy="0" r="26"/>
        <circle cx="0" cy="0" r="10"/>
        <path d="M-18 -6c6 4 12 4 18 0"/>
        <path d="M-12 10c8 2 16 2 24 0"/>
      </g>
    </g>

    <!-- Row E (center herb, off-grid) -->
    <g transform="translate(200,60) rotate(-7)">
      <!-- herb -->
      <g>
        <path d="M0 0 C 14 -24, 42 -24, 56 0 C 42 12, 14 12, 0 0 Z"/>
        <path d="M0 0 C 14 24, 42 24, 56 0"/>
      </g>
    </g>

    <!-- Small fillers to break symmetry, placed at uneven positions -->
    <g opacity="0.35" stroke-width="1.5">
      <g transform="translate(320,90) rotate(8)">
        <rect x="-5" y="-3" width="10" height="6" rx="2"/>
      </g>
      <g transform="translate(90,320) rotate(-12)">
        <circle cx="0" cy="0" r="5"/>
      </g>
      <g transform="translate(300,320) rotate(4)">
        <path d="M0 -5 L5 5 L-5 5 Z"/>
      </g>
    </g>
  </g>
</svg>
